<?xml version="1.0" standalone="no"?>
<!DOCTYPE svg PUBLIC "-//W3C//DTD SVG 20010904//EN"
 "http://www.w3.org/TR/2001/REC-SVG-20010904/DTD/svg10.dtd">
<svg version="1.0" xmlns="http://www.w3.org/2000/svg"
 width="346.000000pt" height="346.000000pt" viewBox="0 0 346.000000 346.000000"
 preserveAspectRatio="xMidYMid meet">
<metadata>
Created by potrace 1.11, written by Peter Selinger 2001-2013
</metadata>
<g transform="translate(0.000000,346.000000) scale(0.100000,-0.100000)"
fill="#000000" stroke="none">
<path d="M1672 2943 c-5 -11 -4 -38 3 -68 10 -44 13 -47 18 -25 7 25 11 74 8
98 -2 18 -19 15 -29 -5z"/>
<path d="M1762 2884 c-12 -8 -29 -28 -37 -44 l-15 -28 40 15 c39 16 60 47 43
64 -5 5 -18 2 -31 -7z"/>
<path d="M1576 2881 c-10 -15 27 -51 61 -60 l32 -9 -27 39 c-26 36 -54 50 -66
30z"/>
<path d="M1765 2802 c-33 -7 -37 -18 -7 -16 41 3 92 -21 92 -43 0 -26 -10 -37
-62 -70 -44 -27 -103 -91 -94 -101 3 -2 17 8 33 23 15 14 56 40 90 56 66 32
81 55 69 102 -8 35 -70 60 -121 49z"/>
<path d="M1523 2790 c-25 -10 -43 -39 -43 -70 0 -28 40 -64 89 -79 22 -6 46
-17 53 -24 8 -6 24 -21 38 -32 l24 -20 -20 35 c-12 21 -44 49 -80 71 -35 21
-60 44 -62 56 -4 29 29 53 77 55 26 1 37 4 29 10 -17 10 -77 9 -105 -2z"/>
<path d="M1769 2592 c-79 -51 -94 -91 -20 -57 22 9 54 32 72 51 29 30 30 34
13 34 -11 0 -40 -13 -65 -28z"/>
<path d="M1520 2606 c0 -18 75 -72 113 -81 39 -10 34 8 -12 44 -36 29 -101 52
-101 37z"/>
<path d="M1863 2577 c-12 -6 -43 -27 -70 -45 l-48 -34 55 7 c68 9 89 17 118
45 19 18 21 24 10 31 -18 12 -39 11 -65 -4z"/>
<path d="M1431 2572 c-22 -15 46 -58 104 -67 28 -3 61 -9 75 -11 19 -4 16 0
-12 14 -20 11 -50 29 -66 41 -36 25 -81 35 -101 23z"/>
<path d="M1778 2479 c-15 -4 -29 -4 -32 -1 -3 3 -6 0 -6 -6 0 -7 14 -12 33
-12 54 0 82 -20 82 -60 0 -30 -6 -39 -51 -70 -54 -37 -96 -87 -109 -130 -7
-24 -6 -23 16 5 33 42 47 53 105 81 68 32 88 56 88 104 0 64 -61 107 -126 89z"/>
<path d="M1490 2453 c-36 -32 -42 -78 -17 -117 9 -14 46 -39 81 -55 35 -17 78
-47 95 -66 17 -20 31 -32 31 -27 0 21 -64 105 -91 120 -50 27 -89 62 -89 81 0
36 29 60 83 67 39 5 47 9 32 15 -44 17 -94 10 -125 -18z"/>
<path d="M2383 2213 c9 -2 25 -2 35 0 9 3 1 5 -18 5 -19 0 -27 -2 -17 -5z"/>
<path d="M2443 2214 c7 -7 34 -11 131 -19 50 -4 97 -8 105 -10 9 -1 43 -6 76
-9 211 -25 459 -73 540 -104 46 -18 95 -50 95 -62 0 -20 -117 -69 -205 -86
-11 -2 -42 -8 -70 -14 -62 -12 -96 -17 -160 -25 -27 -3 -84 -10 -125 -15 -41
-5 -111 -12 -155 -15 -44 -4 -98 -8 -120 -10 -151 -14 -407 -20 -845 -20 -512
0 -673 5 -955 30 -395 36 -683 100 -693 155 -4 24 104 76 194 94 240 49 255
52 349 62 28 3 55 7 62 9 7 2 45 7 85 11 129 12 184 23 88 18 -392 -22 -676
-71 -778 -134 -38 -23 -47 -40 -38 -75 18 -70 286 -146 636 -180 36 -4 75 -8
87 -10 12 -2 63 -6 115 -10 51 -4 109 -9 128 -10 285 -26 1207 -26 1480 0 19
1 73 6 120 9 95 8 331 34 370 41 14 3 43 8 65 11 66 9 210 43 262 60 119 40
158 78 135 130 -28 59 -241 119 -537 149 -33 3 -73 8 -90 10 -16 2 -82 7 -145
10 -63 4 -137 8 -163 10 -27 2 -47 2 -44 -1z"/>
<path d="M1217 2184 c-1 -1 -41 -4 -88 -7 -300 -22 -433 -78 -336 -141 57 -38
294 -79 535 -94 244 -14 762 -7 917 13 290 37 395 70 395 123 0 36 -90 69
-240 87 -25 3 -58 8 -75 10 -55 7 -270 17 -265 12 3 -3 37 -8 75 -11 194 -19
383 -54 437 -82 30 -15 31 -17 14 -30 -22 -15 -126 -40 -211 -50 -33 -3 -69
-8 -80 -10 -65 -12 -276 -19 -610 -19 -418 0 -543 7 -734 41 -83 15 -151 37
-151 49 0 27 336 103 432 97 10 0 20 3 22 6 4 6 -30 12 -37 6z"/>
<path d="M1329 2160 c-124 -21 -120 -75 8 -103 246 -55 744 -29 787 41 9 15
-22 49 -51 56 -37 8 -219 20 -213 13 3 -2 31 -8 63 -11 32 -4 64 -9 70 -11 7
-2 32 -9 57 -15 36 -10 41 -14 27 -22 -19 -10 -33 -13 -128 -27 -69 -10 -521
-7 -579 3 -50 10 -102 27 -97 33 9 8 111 33 162 39 28 4 52 8 54 10 7 7 -112
2 -160 -6z"/>
<path d="M1877 1552 c-34 -37 -11 -92 38 -92 51 0 71 54 35 90 -25 25 -52 26
-73 2z m61 -11 c8 -4 12 -19 10 -32 -2 -19 -9 -24 -33 -24 -33 0 -45 25 -25
50 14 17 29 19 48 6z"/>
<path d="M170 1310 l0 -250 135 0 c83 0 135 4 135 10 0 12 -3 12 -130 15 -52
1 -101 3 -107 4 -10 1 -13 55 -13 236 0 150 -4 235 -10 235 -6 0 -10 -90 -10
-250z"/>
<path d="M525 1541 c-81 -39 -133 -113 -142 -205 -21 -201 192 -345 354 -240
22 15 55 49 74 76 32 48 34 55 34 138 0 79 -3 91 -30 135 -61 99 -194 143
-290 96z m171 -21 c35 -14 84 -61 105 -102 64 -126 1 -283 -130 -322 -175 -52
-325 149 -240 319 50 100 161 144 265 105z"/>
<path d="M899 1543 c-4 -92 0 -475 5 -480 4 -4 62 48 130 116 l123 123 121 -1
c73 -1 123 3 127 9 4 6 -26 10 -87 11 -183 2 -159 11 -285 -114 l-113 -112 -1
45 c0 25 -1 129 -1 233 1 108 -3 187 -9 187 -5 0 -9 -8 -10 -17z"/>
<path d="M1140 1450 c0 -67 4 -110 10 -110 6 0 10 40 10 100 l0 100 126 0 c81
0 123 4 119 10 -4 6 -60 10 -136 10 l-129 0 0 -110z"/>
<path d="M2410 1500 l0 -60 50 0 c37 0 50 -4 50 -14 0 -11 -14 -16 -47 -18
l-48 -3 0 -55 0 -55 53 0 c30 0 51 4 50 10 -2 6 -21 9 -43 8 -41 -1 -41 -1
-40 35 0 37 0 37 50 42 l50 5 0 73 c0 72 -9 112 -19 82 -3 -8 -4 -26 -4 -40 1
-48 -1 -50 -42 -50 -34 0 -39 3 -38 23 2 48 -2 77 -12 77 -6 0 -10 -27 -10
-60z"/>
<path d="M2572 1428 l3 -133 57 -3 57 -3 3 83 c5 138 5 138 -53 138 -37 0 -49
4 -49 15 0 11 12 15 50 15 28 0 50 5 50 10 0 6 -27 10 -60 10 l-61 0 3 -132z
m98 22 c0 -40 0 -40 -39 -40 -39 0 -39 0 -38 40 1 40 1 40 39 40 38 0 38 0 38
-40z m-2 -97 c-3 -36 -5 -38 -38 -38 -33 0 -35 2 -37 38 -2 37 -2 37 38 37
l40 0 -3 -37z"/>
<path d="M2729 1548 c0 -7 -1 -33 -2 -58 l-2 -45 53 -3 c36 -2 52 -7 52 -17 0
-10 -16 -15 -52 -17 l-52 -3 0 -55 -1 -55 58 0 c32 0 57 4 56 10 0 6 -20 9
-45 9 l-44 -2 0 39 0 39 50 0 50 0 0 85 c0 50 -4 85 -10 85 -10 0 -12 -12 -12
-67 0 -32 -1 -33 -39 -33 l-39 0 0 44 c0 25 -4 48 -10 51 -5 3 -10 0 -11 -7z"/>
<path d="M2958 1548 c-2 -7 -4 -58 -3 -113 l0 -100 193 -2 192 -2 0 114 0 115
-189 0 c-142 0 -190 -3 -193 -12z m362 -102 l0 -92 -170 -1 -170 0 -1 31 c-1
34 -1 124 0 143 1 9 44 12 171 12 l170 0 0 -93z"/>
<path d="M1550 1503 c-1 -56 -1 -397 0 -431 0 -13 4 -21 9 -18 5 4 9 56 9 117
0 60 2 112 5 115 3 3 40 6 83 8 88 3 115 15 140 62 25 46 15 127 -20 162 -24
25 -34 27 -126 30 l-100 4 0 -49z m206 4 c20 -18 28 -35 31 -74 5 -45 2 -54
-24 -83 -27 -31 -32 -32 -108 -33 l-80 -2 -3 108 -3 107 80 0 c69 0 84 -3 107
-23z"/>
<path d="M2020 1306 c0 -153 4 -247 10 -251 10 -6 12 33 11 265 0 92 2 112 12
100 199 -252 217 -278 217 -324 0 -25 5 -46 10 -46 6 0 10 90 10 250 0 156 -4
250 -10 250 -6 0 -11 -73 -12 -184 l-3 -184 -112 147 c-97 126 -113 151 -113
184 0 20 -4 37 -10 37 -6 0 -10 -88 -10 -244z"/>
<path d="M1907 1433 c-9 -18 -1 -378 8 -373 6 3 10 79 10 188 0 163 -4 211
-18 185z"/>
<path d="M2940 1282 c-6 -2 -10 -49 -10 -112 l0 -108 43 -3 c23 -2 67 -2 97 1
l55 5 0 108 c0 88 -3 107 -15 108 -48 3 -162 3 -170 1z m163 -99 c-1 -43 -2
-84 -2 -90 -1 -9 -23 -13 -76 -13 l-75 0 0 90 0 90 78 0 77 0 -2 -77z"/>
<path d="M3180 1282 c-6 -2 -10 -49 -10 -113 l0 -109 25 -1 c14 0 41 -1 60 -1
19 0 52 1 73 1 l37 1 0 110 c0 66 -4 110 -10 111 -30 3 -166 4 -175 1z m161
-31 c3 -25 4 -148 1 -158 -3 -9 -28 -13 -78 -13 l-74 0 0 90 0 89 63 3 c64 3
86 0 88 -11z"/>
<path d="M1140 1170 l0 -110 136 0 c87 0 133 4 129 10 -4 6 -57 10 -126 10
l-119 0 0 100 c0 60 -4 100 -10 100 -6 0 -10 -43 -10 -110z"/>
<path d="M2620 1265 c0 -12 -18 -15 -99 -15 -56 0 -103 -4 -106 -10 -4 -6 32
-10 99 -10 l106 0 0 -85 c0 -50 4 -85 10 -85 11 0 12 11 11 108 l0 62 105 0
c68 0 103 4 99 10 -3 6 -50 10 -106 10 -81 0 -99 3 -99 15 0 8 -4 15 -10 15
-5 0 -10 -7 -10 -15z"/>
<path d="M2540 1145 l0 -65 -60 0 c-33 0 -60 -4 -60 -10 0 -15 140 -13 141 3
6 80 2 137 -8 137 -9 0 -13 -20 -13 -65z"/>
<path d="M2703 1138 l2 -73 59 -3 c84 -4 107 11 26 18 l-65 5 0 63 c1 42 -3
62 -11 62 -9 0 -12 -22 -11 -72z"/>
<path d="M2629 1008 c-1 -7 -1 -16 0 -20 0 -5 -46 -8 -103 -8 -59 0 -108 -4
-111 -10 -4 -6 33 -10 103 -10 l109 0 -2 -27 c-1 -28 -1 -28 -81 -30 -43 -1
-92 -2 -107 -2 -16 -1 -26 -5 -22 -11 4 -6 90 -10 226 -10 139 0 219 4 219 10
0 11 -11 12 -127 11 l-83 0 0 29 0 30 105 0 c63 0 105 4 105 10 0 6 -43 10
-109 10 -104 0 -109 1 -104 20 3 11 0 20 -6 20 -6 0 -12 -6 -12 -12z"/>
<path d="M2980 930 l0 -90 -31 0 c-17 0 -28 -4 -24 -10 3 -5 17 -10 31 -10
l24 0 0 -140 0 -140 -31 0 c-17 0 -28 -4 -24 -10 3 -5 36 -10 73 -10 61 0 77
13 27 22 -19 3 -20 12 -21 141 l-2 137 24 0 c33 0 39 18 7 22 -30 3 -29 -3
-32 131 -1 26 -5 47 -11 47 -6 0 -10 -37 -10 -90z"/>
<path d="M3224 1004 c-5 -20 -12 -22 -67 -20 -34 1 -68 0 -74 -2 -16 -5 -19
-462 -3 -462 6 0 10 80 10 220 l0 220 65 0 c58 0 65 -2 65 -20 0 -17 -7 -20
-51 -20 -31 0 -48 -4 -44 -10 3 -5 26 -10 51 -10 43 0 44 -1 44 -31 0 -27 -3
-30 -27 -29 -51 4 -74 0 -68 -10 3 -5 26 -10 51 -10 42 0 44 -1 44 -30 0 -29
-2 -30 -44 -30 -25 0 -47 -4 -50 -9 -8 -12 12 -18 54 -15 19 1 38 -3 41 -9 4
-6 12 -6 20 -1 8 5 36 9 63 9 l50 1 -1 79 c-1 44 -2 86 -2 93 -1 8 -19 12 -54
12 -46 0 -53 3 -54 20 -2 18 4 20 53 20 30 0 54 5 54 10 0 11 -7 12 -67 12
-24 0 -41 3 -39 7 3 4 0 13 -5 21 -7 12 -10 11 -15 -6z m106 -134 c0 -29 -2
-30 -42 -27 -37 2 -42 5 -45 30 -4 26 -2 27 42 27 43 0 45 -1 45 -30z m0 -80
c0 -29 -2 -30 -44 -30 -43 0 -45 1 -44 30 1 29 3 30 45 30 41 0 43 -1 43 -30z"/>
<path d="M215 890 c-3 -5 -1 -10 4 -10 6 0 11 5 11 10 0 6 -2 10 -4 10 -3 0
-8 -4 -11 -10z"/>
<path d="M275 890 c-3 -5 -1 -10 4 -10 6 0 11 5 11 10 0 6 -2 10 -4 10 -3 0
-8 -4 -11 -10z"/>
<path d="M335 890 c-3 -5 -1 -10 4 -10 6 0 11 5 11 10 0 6 -2 10 -4 10 -3 0
-8 -4 -11 -10z"/>
<path d="M395 890 c-3 -5 -1 -10 4 -10 6 0 11 5 11 10 0 6 -2 10 -4 10 -3 0
-8 -4 -11 -10z"/>
<path d="M455 890 c-3 -5 -1 -10 4 -10 6 0 11 5 11 10 0 6 -2 10 -4 10 -3 0
-8 -4 -11 -10z"/>
<path d="M515 890 c-3 -5 -1 -10 4 -10 6 0 11 5 11 10 0 6 -2 10 -4 10 -3 0
-8 -4 -11 -10z"/>
<path d="M575 890 c-3 -5 -1 -10 4 -10 6 0 11 5 11 10 0 6 -2 10 -4 10 -3 0
-8 -4 -11 -10z"/>
<path d="M635 890 c-3 -5 -1 -10 4 -10 6 0 11 5 11 10 0 6 -2 10 -4 10 -3 0
-8 -4 -11 -10z"/>
<path d="M695 890 c-3 -5 -1 -10 4 -10 6 0 11 5 11 10 0 6 -2 10 -4 10 -3 0
-8 -4 -11 -10z"/>
<path d="M755 890 c-3 -5 -1 -10 4 -10 6 0 11 5 11 10 0 6 -2 10 -4 10 -3 0
-8 -4 -11 -10z"/>
<path d="M815 890 c-3 -5 -1 -10 4 -10 6 0 11 5 11 10 0 6 -2 10 -4 10 -3 0
-8 -4 -11 -10z"/>
<path d="M875 890 c-3 -5 -1 -10 4 -10 6 0 11 5 11 10 0 6 -2 10 -4 10 -3 0
-8 -4 -11 -10z"/>
<path d="M935 890 c-3 -5 -1 -10 4 -10 6 0 11 5 11 10 0 6 -2 10 -4 10 -3 0
-8 -4 -11 -10z"/>
<path d="M995 890 c-3 -5 -1 -10 4 -10 6 0 11 5 11 10 0 6 -2 10 -4 10 -3 0
-8 -4 -11 -10z"/>
<path d="M1055 890 c-3 -5 -1 -10 4 -10 6 0 11 5 11 10 0 6 -2 10 -4 10 -3 0
-8 -4 -11 -10z"/>
<path d="M1115 890 c-3 -5 -1 -10 4 -10 6 0 11 5 11 10 0 6 -2 10 -4 10 -3 0
-8 -4 -11 -10z"/>
<path d="M1175 890 c-3 -5 -1 -10 4 -10 6 0 11 5 11 10 0 6 -2 10 -4 10 -3 0
-8 -4 -11 -10z"/>
<path d="M1235 890 c-3 -5 -1 -10 4 -10 6 0 11 5 11 10 0 6 -2 10 -4 10 -3 0
-8 -4 -11 -10z"/>
<path d="M1295 890 c-3 -5 -1 -10 4 -10 6 0 11 5 11 10 0 6 -2 10 -4 10 -3 0
-8 -4 -11 -10z"/>
<path d="M1355 890 c-3 -5 -1 -10 4 -10 6 0 11 5 11 10 0 6 -2 10 -4 10 -3 0
-8 -4 -11 -10z"/>
<path d="M1415 890 c-3 -5 -1 -10 4 -10 6 0 11 5 11 10 0 6 -2 10 -4 10 -3 0
-8 -4 -11 -10z"/>
<path d="M1475 890 c-3 -5 -1 -10 4 -10 6 0 11 5 11 10 0 6 -2 10 -4 10 -3 0
-8 -4 -11 -10z"/>
<path d="M1535 890 c-3 -5 -1 -10 4 -10 6 0 11 5 11 10 0 6 -2 10 -4 10 -3 0
-8 -4 -11 -10z"/>
<path d="M1595 890 c-3 -5 -1 -10 4 -10 6 0 11 5 11 10 0 6 -2 10 -4 10 -3 0
-8 -4 -11 -10z"/>
<path d="M1655 890 c-3 -5 -1 -10 4 -10 6 0 11 5 11 10 0 6 -2 10 -4 10 -3 0
-8 -4 -11 -10z"/>
<path d="M1715 890 c-3 -5 -1 -10 4 -10 6 0 11 5 11 10 0 6 -2 10 -4 10 -3 0
-8 -4 -11 -10z"/>
<path d="M1775 890 c-3 -5 -1 -10 4 -10 6 0 11 5 11 10 0 6 -2 10 -4 10 -3 0
-8 -4 -11 -10z"/>
<path d="M1835 890 c-3 -5 -1 -10 4 -10 6 0 11 5 11 10 0 6 -2 10 -4 10 -3 0
-8 -4 -11 -10z"/>
<path d="M1895 890 c-3 -5 -1 -10 4 -10 6 0 11 5 11 10 0 6 -2 10 -4 10 -3 0
-8 -4 -11 -10z"/>
<path d="M1955 890 c-3 -5 -1 -10 4 -10 6 0 11 5 11 10 0 6 -2 10 -4 10 -3 0
-8 -4 -11 -10z"/>
<path d="M2015 890 c-3 -5 -1 -10 4 -10 6 0 11 5 11 10 0 6 -2 10 -4 10 -3 0
-8 -4 -11 -10z"/>
<path d="M2075 890 c-3 -5 -1 -10 4 -10 6 0 11 5 11 10 0 6 -2 10 -4 10 -3 0
-8 -4 -11 -10z"/>
<path d="M2135 890 c-3 -5 -1 -10 4 -10 6 0 11 5 11 10 0 6 -2 10 -4 10 -3 0
-8 -4 -11 -10z"/>
<path d="M2195 890 c-3 -5 -1 -10 4 -10 6 0 11 5 11 10 0 6 -2 10 -4 10 -3 0
-8 -4 -11 -10z"/>
<path d="M2255 890 c-3 -5 -1 -10 4 -10 6 0 11 5 11 10 0 6 -2 10 -4 10 -3 0
-8 -4 -11 -10z"/>
<path d="M2414 846 c-3 -8 -4 -29 -2 -48 l3 -33 61 -3 c56 -3 61 -5 57 -22 -5
-17 -14 -20 -65 -20 -37 0 -57 -4 -53 -10 3 -5 30 -10 60 -10 48 0 54 -3 58
-22 l4 -23 8 23 c7 22 12 23 94 20 62 -2 85 -6 84 -15 -2 -7 4 -13 12 -13 8 0
15 7 15 15 0 12 13 15 55 15 30 0 55 5 55 10 0 6 -24 10 -54 10 -45 0 -54 3
-59 20 -5 18 0 20 54 20 l59 0 0 50 0 50 -220 0 c-180 0 -222 -3 -226 -14z
m426 -37 l0 -29 -202 2 c-189 3 -203 4 -206 22 -2 10 2 22 9 26 6 5 99 8 206
8 l193 1 0 -30z m-113 -69 c-1 -18 -8 -20 -89 -20 -81 0 -88 2 -88 20 0 19 7
20 89 20 84 0 90 -1 88 -20z"/>
<path d="M209 719 c-1 -22 -1 -50 -1 -64 0 -14 0 -29 1 -34 1 -12 60 -11 84 1
18 9 24 58 7 58 -7 0 -7 6 0 19 14 26 3 51 -24 52 -11 1 -31 3 -43 4 -20 2
-23 -3 -24 -36z m79 -3 c-2 -16 -11 -22 -35 -24 -29 -3 -33 0 -33 21 0 31 4
34 40 29 25 -4 30 -9 28 -26z m9 -52 c8 -21 -9 -36 -46 -40 -29 -3 -31 -1 -31
26 0 28 3 30 35 30 23 0 38 -6 42 -16z"/>
<path d="M346 690 c-16 -39 -26 -73 -23 -77 3 -3 9 7 13 21 5 23 11 26 41 24
25 -2 39 -9 49 -28 l15 -25 -7 25 c-7 27 -51 130 -56 130 -2 0 -16 -32 -32
-70z m51 10 c11 -29 10 -30 -17 -30 -27 0 -28 1 -17 30 6 17 14 30 17 30 3 0
11 -13 17 -30z"/>
<path d="M459 750 c-1 -3 -3 -24 -4 -48 -2 -34 0 -40 11 -31 7 6 25 9 40 7 21
-2 30 -11 39 -38 11 -33 12 -32 11 32 -1 36 -4 70 -8 74 -9 8 -87 12 -89 4z
m86 -36 c0 -15 -9 -20 -37 -22 -22 -2 -39 1 -39 7 -1 6 -2 17 -3 24 -2 16 33
26 59 17 11 -4 20 -16 20 -26z"/>
<path d="M671 751 c-8 -5 -11 -16 -6 -30 4 -15 1 -29 -10 -41 -34 -38 10 -84
56 -60 15 9 23 9 28 1 4 -6 7 5 7 24 0 19 -3 29 -7 23 -6 -9 -14 -7 -30 7
l-23 20 16 -26 c13 -20 14 -29 5 -38 -15 -15 -32 -14 -46 3 -15 18 -5 40 24
56 30 16 43 49 24 61 -8 5 -16 9 -19 9 -3 0 -11 -4 -19 -9z m35 -12 c10 -17
-13 -36 -27 -22 -12 12 -4 33 11 33 5 0 12 -5 16 -11z"/>
<path d="M832 740 c-5 -14 -13 -40 -17 -58 -8 -40 -17 -33 -34 26 -7 24 -15
42 -17 39 -6 -6 25 -119 36 -130 4 -4 15 20 25 55 l18 63 16 -57 c8 -32 20
-58 27 -58 12 0 49 128 40 137 -3 3 -10 -15 -16 -38 -21 -85 -26 -89 -39 -34
-17 71 -27 86 -39 55z"/>
<path d="M962 752 c-22 -3 -23 -7 -20 -70 2 -54 6 -67 21 -70 9 -2 17 1 17 7
0 6 -6 10 -12 9 -8 -2 -13 7 -13 22 -1 22 5 26 40 31 l40 6 -42 1 c-39 2 -43
4 -41 27 2 24 8 27 55 28 12 0 20 3 18 8 -5 8 -17 8 -63 1z"/>
<path d="M1050 683 c0 -71 1 -73 24 -71 14 1 22 6 20 10 -3 4 -11 5 -19 1 -12
-4 -15 6 -15 55 0 56 2 60 25 64 59 12 92 -72 43 -106 -12 -9 -19 -18 -16 -22
13 -13 48 37 48 69 0 48 -18 67 -68 70 l-42 3 0 -73z"/>
<path d="M1180 684 c0 -68 2 -74 21 -74 11 0 17 5 14 10 -4 6 -11 8 -16 4 -6
-4 -9 18 -7 58 3 63 3 63 32 61 42 -3 57 -21 54 -62 -2 -26 -9 -39 -25 -46
-27 -11 -31 -27 -5 -18 27 9 42 34 42 68 0 45 -19 64 -67 69 l-43 4 0 -74z"/>
<path d="M1313 685 c0 -44 2 -61 4 -37 2 23 2 59 0 80 -2 20 -4 1 -4 -43z"/>
<path d="M1349 748 c-5 -56 -4 -120 2 -123 4 -3 6 19 5 49 -1 63 6 61 54 -15
18 -27 35 -47 39 -44 10 6 11 135 2 135 -5 0 -7 -25 -6 -55 2 -30 0 -55 -4
-55 -3 0 -23 27 -45 60 -40 63 -45 68 -47 48z"/>
<path d="M1499 741 c-29 -23 -31 -81 -4 -111 22 -24 73 -27 82 -4 5 13 7 13
14 2 6 -8 9 -1 9 23 0 32 -3 36 -25 35 -13 -1 -27 -5 -31 -9 -4 -3 3 -5 14 -2
31 6 38 -14 14 -37 -40 -41 -104 9 -83 65 19 49 67 58 98 18 12 -14 12 -14 7
2 -6 17 -41 37 -64 37 -4 0 -18 -8 -31 -19z"/>
<path d="M1760 700 c-20 -53 -40 -71 -40 -36 0 19 -30 89 -36 84 -5 -6 35
-118 46 -131 4 -5 20 23 35 62 16 39 26 73 23 76 -3 3 -15 -21 -28 -55z"/>
<path d="M1807 745 c-2 -5 -3 -37 -3 -70 1 -55 3 -60 24 -61 12 -1 22 3 22 8
0 5 -8 8 -17 6 -13 -2 -18 4 -18 22 0 21 6 26 40 31 l40 6 -37 2 c-21 0 -38 4
-39 9 0 4 -2 15 -4 25 -3 17 6 21 34 18 7 -2 10 2 7 8 -8 13 -44 10 -49 -4z"/>
<path d="M1870 750 c0 -5 5 -10 10 -10 6 0 10 5 10 10 0 6 -4 10 -10 10 -5 0
-10 -4 -10 -10z"/>
<path d="M1910 683 c0 -42 2 -74 5 -71 3 3 6 31 6 62 1 31 2 56 4 56 1 0 21
-27 44 -60 23 -33 44 -60 47 -60 2 0 3 33 2 73 -2 71 -2 71 -5 13 l-4 -58 -46
61 c-25 33 -47 61 -49 61 -2 0 -4 -34 -4 -77z"/>
<path d="M2043 700 c4 -80 34 -108 88 -80 16 9 19 21 17 73 l-2 62 -3 -55 c-4
-58 -16 -80 -42 -80 -33 0 -44 18 -46 75 -2 31 -6 59 -9 62 -3 3 -4 -22 -3
-57z"/>
<path d="M2183 752 c-7 -4 -11 -33 -11 -73 l1 -66 48 1 c27 0 46 2 43 5 -3 3
-21 5 -41 6 -33 0 -37 3 -38 28 -2 25 1 27 39 28 l41 2 -40 6 c-35 5 -40 9
-40 31 1 19 5 24 19 22 11 -2 15 1 11 7 -7 13 -16 14 -32 3z"/>
<path d="M2230 752 c0 -4 10 -9 22 -9 18 -2 20 0 8 7 -18 12 -30 13 -30 2z"/>
<path d="M3177 702 l-58 -3 3 -87 3 -87 114 0 115 0 0 85 0 85 -59 5 c-33 3
-86 4 -118 2z m153 -92 l0 -71 -92 3 -93 3 -3 68 -3 67 96 0 95 0 0 -70z"/>
<path d="M450 635 c0 -8 5 -15 10 -15 6 0 10 7 10 15 0 8 -4 15 -10 15 -5 0
-10 -7 -10 -15z"/>
<path d="M2420 585 l0 -65 223 2 222 3 0 60 0 60 -223 3 -222 2 0 -65z m425 0
l0 -40 -202 -3 -203 -2 0 45 0 45 202 -2 202 -3 1 -40z"/>
<path d="M990 618 c0 -4 11 -7 25 -6 28 3 24 11 -5 13 -11 1 -20 -2 -20 -7z"/>
<path d="M1866 622 c-3 -5 1 -9 9 -9 8 0 15 4 15 9 0 4 -4 8 -9 8 -6 0 -12 -4
-15 -8z"/>
</g>
</svg>
